<svg xmlns="http://www.w3.org/2000/svg" viewBox="755.640625 330.945312 408.71875 406.59765699999997">
<path fill="currentColor" d="M 955.960938 348.515625 L 955.960938 719.96875 C 955.960938 728.671875 948.871094 735.542969 940.386719 735.542969 C 939.839844 735.542969 939.308594 735.523438 938.757812 735.46875 C 916.734375 733.179688 895.757812 727.351562 876.410156 718.578125 C 868.203125 714.855469 862.871094 706.742188 862.871094 697.726562 L 862.871094 580.089844 C 862.871094 577.855469 861.058594 576.042969 858.824219 576.042969 C 856.589844 576.042969 854.773438 577.855469 854.773438 580.089844 L 854.773438 686.09375 C 854.773438 692.652344 849.351562 697.269531 843.617188 697.269531 C 841.382812 697.269531 839.109375 696.574219 837.078125 695.015625 C 788.800781 658.027344 757.640625 599.765625 757.640625 534.269531 C 757.640625 468.71875 788.800781 410.476562 837.078125 373.46875 C 839.109375 371.929688 841.382812 371.234375 843.617188 371.234375 C 849.351562 371.234375 854.773438 375.832031 854.773438 382.390625 L 854.773438 488.394531 C 854.773438 490.632812 856.589844 492.445312 858.824219 492.445312 C 861.058594 492.445312 862.871094 490.632812 862.871094 488.394531 L 862.871094 370.757812 C 862.871094 361.746094 868.203125 353.628906 876.410156 349.910156 C 895.757812 341.132812 916.734375 335.308594 938.757812 333.035156 C 939.308594 332.980469 939.839844 332.945312 940.386719 332.945312 C 948.871094 332.945312 955.960938 339.832031 955.960938 348.515625 "/>
<path fill="currentColor" d="M 1162.359375 534.269531 C 1162.359375 638.882812 1082.976562 724.914062 981.1875 735.449219 C 980.636719 735.503906 980.105469 735.542969 979.574219 735.542969 C 971.109375 735.542969 964.058594 728.636719 964.058594 719.96875 L 964.058594 348.515625 C 964.058594 339.832031 971.128906 332.945312 979.628906 332.945312 C 980.160156 332.945312 980.691406 332.980469 981.242188 333.035156 C 1003.265625 335.308594 1024.242188 341.132812 1043.589844 349.910156 C 1051.796875 353.628906 1057.128906 361.746094 1057.128906 370.757812 L 1057.128906 606.179688 C 1057.128906 608.414062 1058.941406 610.230469 1061.175781 610.230469 C 1063.410156 610.230469 1065.226562 608.414062 1065.226562 606.179688 L 1065.226562 382.390625 C 1065.226562 375.835938 1070.648438 371.234375 1076.382812 371.234375 C 1078.617188 371.234375 1080.90625 371.929688 1082.921875 373.46875 C 1131.199219 410.476562 1162.359375 468.71875 1162.359375 534.269531 "/>
</svg>